<svg width="64" height="64" viewBox="0 0 64 64" fill="none" xmlns="http://www.w3.org/2000/svg">
<path d="M32 22.7C26.87 22.7 22.7 26.87 22.7 32C22.7 37.13 26.87 41.3 32 41.3C37.13 41.3 41.3 37.13 41.3 32C41.3 26.87 37.13 22.7 32 22.7ZM32 40.3C27.42 40.3 23.7 36.58 23.7 32C23.7 27.42 27.42 23.7 32 23.7C36.58 23.7 40.3 27.42 40.3 32C40.3 36.58 36.58 40.3 32 40.3ZM34.78 35.29C34.28 35.99 33.34 36.39 32.24 36.39C30.04 36.39 28.66 34.7 28.66 31.98C28.66 29.26 30.01 27.6 32.24 27.6C33.21 27.6 34 27.91 34.53 28.52C34.84 28.86 34.99 29.14 35.21 29.8L37.39 29.33C37.2 28.77 37.09 28.5 36.9 28.19C36.51 27.54 35.94 26.99 35.24 26.57C34.38 26.08 33.45 25.86 32.23 25.86C30.66 25.86 29.25 26.36 28.3 27.27C27.12 28.38 26.46 30.1 26.46 32.06C26.46 34.02 27.07 35.64 28.17 36.72C29.13 37.65 30.49 38.14 32.21 38.14C34.09 38.14 35.6 37.56 36.5 36.52C36.97 35.94 37.25 35.36 37.55 34.3L35.3 33.93C35.17 34.61 35.05 34.92 34.78 35.29Z" fill="black"/>
</svg>
