<svg width="64" height="64" viewBox="0 0 64 64" fill="none" xmlns="http://www.w3.org/2000/svg">
<path d="M39.85 24.31L39.88 24.28L39.15 23.6L39.12 23.63C37.2 22 34.72 21 32 21C25.93 21 21 25.93 21 32C21 38.07 25.93 43 32 43C38.07 43 43 38.07 43 32C43 29.01 41.8 26.29 39.85 24.31ZM32 22C34.45 22 36.7 22.89 38.44 24.36L32.09 31.21L25.66 24.28C27.39 22.86 29.6 22.01 32.01 22.01L32 22ZM22 32C22 29.25 23.11 26.75 24.91 24.94L31.4 31.93L24.85 38.98C23.08 37.18 21.99 34.71 21.99 31.99L22 32ZM32 42C29.56 42 27.33 41.12 25.59 39.67L32.09 32.67L38.51 39.58C36.76 41.08 34.49 41.99 32.01 41.99L32 42ZM39.23 38.9L32.77 31.94L39.17 25.04C40.92 26.84 42 29.29 42 32C42 34.71 40.94 37.1 39.23 38.9Z" fill="black"/>
</svg>
