<svg width="64" height="64" viewBox="0 0 64 64" fill="none" xmlns="http://www.w3.org/2000/svg">
<path d="M32 21C25.93 21 21 25.93 21 32C21 38.07 25.93 43 32 43C38.07 43 43 38.07 43 32C43 25.93 38.07 21 32 21ZM32 42C29.41 42 27.05 41 25.27 39.38H38.72C36.94 41 34.59 42 31.99 42H32ZM26 38.38L32 31L38 38.38H26ZM39.48 38.62L38.78 37.75L32.78 30.37L32 29.41L31.22 30.37L25.22 37.75L24.52 38.62C22.96 36.86 22 34.54 22 32C22 26.48 26.48 22 32 22C37.52 22 42 26.48 42 32C42 34.54 41.04 36.86 39.48 38.62ZM34.97 24.68L34.2 25.32L39.62 31.9L40.39 31.26L34.97 24.68ZM23.37 31.26L24.14 31.9L29.55 25.32L28.78 24.68L23.37 31.26Z" fill="black"/>
</svg>
