<svg width="64" height="64" viewBox="0 0 64 64" fill="none" xmlns="http://www.w3.org/2000/svg">
<path d="M28.28 33.95L32.28 35.95L32.73 35.06L28.73 33.06L28.28 33.95ZM28.75 28H26.75V26H25.75V28H23.75V29H25.75V39H26.75V29H28.75V28ZM32 21C25.93 21 21 25.93 21 32C21 38.07 25.93 43 32 43C38.07 43 43 38.07 43 32C43 25.93 38.07 21 32 21ZM38.94 39.19L35.78 37.08L35.23 37.91L38.16 39.86C36.46 41.19 34.33 41.99 32.01 41.99C26.49 41.99 22.01 37.51 22.01 31.99C22.01 26.47 26.49 21.99 32.01 21.99C37.53 21.99 42.01 26.47 42.01 31.99C42.01 34.82 40.83 37.36 38.95 39.18L38.94 39.19ZM28.2 40.1L28.8 40.9L32.8 37.9L32.2 37.1L28.2 40.1ZM39.28 33.05L35.28 35.05L35.73 35.94L39.73 33.94L39.28 33.05ZM35.75 31.85L36.71 32.15C37.22 30.51 37.58 28.68 37.81 26.55L37.87 26H33.95C33.99 25.25 33.99 24.68 33.99 24.5H32.99C32.99 24.87 32.98 25.4 32.94 26H30.49V27H32.87C32.71 28.83 32.35 30.93 31.64 31.65L32.35 32.36C33.32 31.39 33.72 28.93 33.88 27.01H36.75C36.53 28.83 36.2 30.42 35.75 31.86V31.85Z" fill="black"/>
</svg>
