<svg width="64" height="64" viewBox="0 0 64 64" fill="none" xmlns="http://www.w3.org/2000/svg">
<path d="M42.38 32.5V31.5H38.7C38.59 30.02 38 28.68 37.09 27.62L39.69 25.02L38.98 24.31L36.38 26.91C35.32 26 33.98 25.41 32.5 25.3V21.62H31.5V25.3C30.02 25.41 28.68 26 27.62 26.91L25.02 24.31L24.31 25.02L26.91 27.62C26 28.68 25.41 30.02 25.3 31.5H21.62V32.5H25.3C25.41 33.98 26 35.32 26.91 36.38L24.31 38.98L25.02 39.69L27.62 37.09C28.68 38 30.02 38.59 31.5 38.7V42.38H32.5V38.7C33.98 38.59 35.32 38 36.38 37.09L38.98 39.69L39.69 38.98L37.09 36.38C38 35.32 38.59 33.98 38.7 32.5H42.38ZM32 37.73C28.84 37.73 26.27 35.16 26.27 32C26.27 28.84 28.84 26.27 32 26.27C35.16 26.27 37.73 28.84 37.73 32C37.73 35.16 35.16 37.73 32 37.73Z" fill="black"/>
</svg>
