<svg width="64" height="64" viewBox="0 0 64 64" fill="none" xmlns="http://www.w3.org/2000/svg">
<path d="M32 22.7C26.87 22.7 22.7 26.87 22.7 32C22.7 37.13 26.87 41.3 32 41.3C37.13 41.3 41.3 37.13 41.3 32C41.3 26.87 37.13 22.7 32 22.7ZM32 40.3C27.42 40.3 23.7 36.58 23.7 32C23.7 27.42 27.42 23.7 32 23.7C36.58 23.7 40.3 27.42 40.3 32C40.3 36.58 36.58 40.3 32 40.3ZM28.6 27.05C27.67 27.05 26.83 27.01 26.32 26.95V29.71C27.4 29.62 27.66 29.61 28.63 29.61H30.43V36.88C30.43 37.79 30.4 38.38 30.31 39.06H33.69C33.6 38.38 33.57 37.75 33.57 36.88V29.61H35.29C36.39 29.61 36.99 29.64 37.67 29.71V26.95C36.97 27.02 36.36 27.05 35.29 27.05H28.6Z" fill="black"/>
</svg>
