<svg width="64" height="64" viewBox="0 0 64 64" fill="none" xmlns="http://www.w3.org/2000/svg">
<path d="M38.92 31.59C38.73 30.68 37.92 29.99 36.95 29.99C35.98 29.99 35.17 30.68 34.98 31.59H29.04C28.85 30.68 28.04 29.99 27.07 29.99C26.1 29.99 25.29 30.68 25.1 31.59H22.72V32.59H25.15C25.41 33.41 26.16 34.01 27.06 34.01C27.96 34.01 28.72 33.41 28.97 32.59H35.03C35.29 33.41 36.04 34.01 36.94 34.01C37.84 34.01 38.6 33.41 38.85 32.59H41.27V31.59H38.91H38.92ZM27.07 33.26C26.4 33.26 25.87 32.74 25.83 32.08V31.92C25.87 31.26 26.41 30.74 27.07 30.74C27.73 30.74 28.33 31.3 28.33 32C28.33 32.7 27.77 33.26 27.07 33.26ZM38.17 32.17C38.08 32.78 37.58 33.26 36.94 33.26C36.24 33.26 35.68 32.7 35.68 32C35.68 31.3 36.24 30.74 36.94 30.74C37.58 30.74 38.08 31.22 38.17 31.83V32.17Z" fill="black"/>
</svg>
