<svg width="64" height="64" viewBox="0 0 64 64" fill="none" xmlns="http://www.w3.org/2000/svg">
<path d="M36.42 29.4C35.52 27.88 33.89 26.85 32 26.85C30.11 26.85 28.48 27.88 27.58 29.4H23.1V34.6H27.58C28.48 36.12 30.11 37.15 32 37.15C33.89 37.15 35.52 36.12 36.42 34.6H40.9V29.4H36.42ZM27.13 33.6H24.1V30.4H27.13C26.96 30.91 26.85 31.44 26.85 32C26.85 32.56 26.96 33.09 27.13 33.6ZM32 36.15C29.71 36.15 27.85 34.29 27.85 32C27.85 29.71 29.71 27.85 32 27.85C34.29 27.85 36.15 29.71 36.15 32C36.15 34.29 34.29 36.15 32 36.15ZM39.9 33.6H36.87C37.04 33.09 37.15 32.56 37.15 32C37.15 31.44 37.04 30.91 36.87 30.4H39.9V33.6Z" fill="black"/>
</svg>
