<svg width="64" height="64" viewBox="0 0 64 64" fill="none" xmlns="http://www.w3.org/2000/svg">
<path d="M41.4999 17.5C41.3299 17.5 41.1599 17.52 40.9999 17.56V11.32C40.9999 11.08 40.8299 10.87 40.5999 10.83C40.3599 10.78 40.1299 10.91 40.0399 11.13L34.4899 24.86H27.6899V32.5H35.3299V25.46L40.0099 13.89V18H40.1099C39.5899 18.41 39.2599 19.04 39.2599 19.75C39.2599 20.99 40.2699 22 41.5099 22C42.7499 22 43.7599 20.99 43.7599 19.75C43.7599 18.51 42.7499 17.5 41.5099 17.5H41.4999ZM34.3199 31.5H28.6799V25.86H34.3199V31.5ZM41.4999 21C40.8099 21 40.2499 20.44 40.2499 19.75C40.2499 19.06 40.8099 18.5 41.4999 18.5C42.1899 18.5 42.7499 19.06 42.7499 19.75C42.7499 20.44 42.1899 21 41.4999 21Z" fill="black"/>
</svg>
