<svg width="64" height="64" viewBox="0 0 64 64" fill="none" xmlns="http://www.w3.org/2000/svg">
<path d="M44.7801 11.34L41.8401 13.44L38.4201 11.46L35.0201 13.44L32.0501 11.34H31.0501V23.56C28.7001 23.81 26.8501 25.79 26.8501 28.21C26.8501 30.8 28.9601 32.91 31.5501 32.91C34.1401 32.91 36.2501 30.8 36.2501 28.21C36.2501 25.79 34.4001 23.81 32.0501 23.56V12.58L34.9801 14.65L38.4301 12.63L41.9101 14.65L45.3801 12.17L44.8001 11.36L44.7801 11.34ZM35.2401 28.2C35.2401 30.24 33.5801 31.9 31.5401 31.9C29.5001 31.9 27.8401 30.24 27.8401 28.2C27.8401 26.16 29.5001 24.5 31.5401 24.5C33.5801 24.5 35.2401 26.16 35.2401 28.2Z" fill="black"/>
</svg>
