<svg width="64" height="64" viewBox="0 0 64 64" fill="none" xmlns="http://www.w3.org/2000/svg">
<path d="M29.06 32.69C28.16 32.69 27.42 33.42 27.42 34.32C27.42 35.22 28.15 35.95 29.06 35.95C29.97 35.95 30.6901 35.22 30.6901 34.32C30.6901 33.42 29.96 32.69 29.06 32.69ZM29.06 35.21C28.57 35.21 28.17 34.81 28.17 34.33C28.17 33.85 28.57 33.45 29.06 33.45C29.55 33.45 29.9401 33.85 29.9401 34.33C29.9401 34.81 29.54 35.21 29.06 35.21ZM27.3 27.92V28.92H36.7001V27.92H27.3ZM34.94 32.69C34.04 32.69 33.3101 33.42 33.3101 34.32C33.3101 35.22 34.04 35.95 34.94 35.95C35.84 35.95 36.5801 35.22 36.5801 34.32C36.5801 33.42 35.85 32.69 34.94 32.69ZM34.94 35.21C34.45 35.21 34.0601 34.81 34.0601 34.33C34.0601 33.85 34.46 33.45 34.94 33.45C35.42 33.45 35.8301 33.85 35.8301 34.33C35.8301 34.81 35.43 35.21 34.94 35.21Z" fill="black"/>
</svg>
