<svg width="64" height="64" viewBox="0 0 64 64" fill="none" xmlns="http://www.w3.org/2000/svg">
<path d="M40.37 24.94C40.12 24.83 39.82 24.95 39.71 25.21C39.6 25.46 39.72 25.76 39.98 25.87C41.51 26.52 42.5 27.94 42.5 29.5C42.5 31.7 40.57 33.49 38.2 33.49C37.8 33.49 37.38 33.42 36.9 33.28C36.74 33.23 36.57 33.27 36.44 33.37C36.31 33.47 36.24 33.64 36.26 33.8L36.28 33.97C36.28 34.02 36.3 34.07 36.3 34.13C36.3 36.33 34.37 38.12 32 38.12C29.63 38.12 27.7 36.33 27.7 34.13C27.7 34.08 27.7 34.02 27.72 33.97L27.74 33.8C27.75 33.64 27.69 33.47 27.56 33.37C27.43 33.26 27.26 33.23 27.1 33.28C26.63 33.42 26.2 33.49 25.8 33.49C23.43 33.49 21.5 31.7 21.5 29.5C21.5 28.15 22.23 26.9 23.45 26.16C23.69 26.02 23.76 25.71 23.62 25.47C23.48 25.23 23.17 25.16 22.93 25.3C21.41 26.22 20.5 27.79 20.5 29.5C20.5 32.25 22.88 34.49 25.8 34.49C26.09 34.49 26.39 34.46 26.7 34.41C26.85 37.03 29.17 39.13 31.99 39.13C34.81 39.13 37.14 37.04 37.28 34.41C37.59 34.47 37.89 34.49 38.18 34.49C41.1 34.49 43.48 32.25 43.48 29.5C43.48 27.54 42.25 25.75 40.35 24.95L40.37 24.94Z" fill="black"/>
</svg>
