<svg width="64" height="64" viewBox="0 0 64 64" fill="none" xmlns="http://www.w3.org/2000/svg">
<path d="M27.45 30C26.24 30 25.25 30.9 25.25 32C25.25 33.1 26.24 34 27.45 34C28.66 34 29.65 33.1 29.65 32C29.65 30.9 28.66 30 27.45 30ZM27.45 33C26.79 33 26.25 32.55 26.25 32C26.25 31.45 26.79 31 27.45 31C28.11 31 28.65 31.45 28.65 32C28.65 32.55 28.11 33 27.45 33ZM32.85 30.79C31.89 30.79 31.1 31.51 31.1 32.39C31.1 33.27 31.89 33.99 32.85 33.99C33.81 33.99 34.6 33.27 34.6 32.39C34.6 31.51 33.81 30.79 32.85 30.79ZM32.85 33C32.44 33 32.1 32.73 32.1 32.4C32.1 32.07 32.44 31.8 32.85 31.8C33.26 31.8 33.6 32.07 33.6 32.4C33.6 32.73 33.26 33 32.85 33ZM37.4 31.5C36.66 31.5 36.05 32.06 36.05 32.75C36.05 33.44 36.66 34 37.4 34C38.14 34 38.75 33.44 38.75 32.75C38.75 32.06 38.14 31.5 37.4 31.5ZM37.4 33C37.21 33 37.05 32.88 37.05 32.75C37.05 32.62 37.21 32.5 37.4 32.5C37.59 32.5 37.75 32.62 37.75 32.75C37.75 32.88 37.59 33 37.4 33Z" fill="black"/>
</svg>
