<svg width="64" height="64" viewBox="0 0 64 64" fill="none" xmlns="http://www.w3.org/2000/svg">
<path d="M34.72 32.01C34.27 31.6 33.72 31.37 32.34 31C31.57 30.79 31.29 30.69 30.99 30.5C30.72 30.32 30.57 30.04 30.57 29.72C30.57 29.03 31.14 28.56 31.98 28.56C32.82 28.56 33.32 28.96 33.47 29.87L35.25 29.59C35.06 28.78 34.87 28.37 34.52 27.95C33.97 27.32 33.09 26.99 31.98 26.99C30.75 26.99 29.83 27.42 29.28 28.28C29.01 28.69 28.86 29.24 28.86 29.82C28.86 30.78 29.28 31.57 30.05 32.02C30.51 32.28 30.93 32.45 32 32.73C33.08 33.03 33.16 33.04 33.42 33.26C33.64 33.44 33.77 33.76 33.77 34.09C33.77 34.87 33.15 35.35 32.15 35.35C31.1 35.35 30.6 34.9 30.37 33.78L28.52 34.06C28.68 34.8 28.8 35.13 29.05 35.53C29.63 36.49 30.67 37 32.06 37C33.29 37 34.24 36.64 34.86 35.93C35.27 35.47 35.52 34.74 35.52 34.06C35.52 33.15 35.26 32.47 34.74 32.01H34.72Z" fill="black"/>
</svg>
