<svg width="64" height="64" viewBox="0 0 64 64" fill="none" xmlns="http://www.w3.org/2000/svg">
<path d="M31.17 23.81L21.8 40.03H40.53L31.16 23.81H31.17ZM31.17 25.81L38.8 39.03H23.5301L31.16 25.81H31.17ZM31.17 31.67C29.79 31.67 28.67 32.79 28.67 34.17C28.67 35.55 29.79 36.67 31.17 36.67C32.55 36.67 33.67 35.55 33.67 34.17C33.67 32.79 32.55 31.67 31.17 31.67ZM31.17 35.67C30.34 35.67 29.67 35 29.67 34.17C29.67 33.34 30.34 32.67 31.17 32.67C32 32.67 32.67 33.34 32.67 34.17C32.67 35 32 35.67 31.17 35.67Z" fill="black"/>
</svg>
