<svg width="64" height="64" viewBox="0 0 64 64" fill="none" xmlns="http://www.w3.org/2000/svg">
<path d="M39.39 32C40.89 30.89 41.35 28.8 40.4 27.15C39.45 25.5 37.41 24.85 35.7 25.6C35.49 23.75 33.91 22.3 32 22.3C30.09 22.3 28.51 23.74 28.3 25.6C26.59 24.85 24.55 25.5 23.59 27.15C22.64 28.8 23.1 30.89 24.6 32C23.1 33.11 22.64 35.2 23.59 36.85C24.54 38.5 26.58 39.15 28.29 38.4C28.5 40.25 30.08 41.7 31.99 41.7C33.9 41.7 35.48 40.26 35.69 38.4C37.4 39.15 39.44 38.5 40.4 36.85C41.36 35.2 40.89 33.11 39.39 32ZM39.54 36.35C38.79 37.65 37.12 38.1 35.82 37.35C35.7 37.28 35.6 37.21 35.49 37.12L34.68 37.58C34.7 37.71 34.71 37.84 34.71 37.98C34.71 39.48 33.49 40.7 31.99 40.7C30.49 40.7 29.27 39.48 29.27 37.98C29.27 37.85 29.28 37.71 29.3 37.58L28.49 37.12C28.39 37.2 28.28 37.28 28.16 37.35C26.86 38.1 25.19 37.65 24.44 36.35C24.08 35.72 23.98 34.99 24.17 34.29C24.36 33.59 24.81 33 25.44 32.64C25.56 32.57 25.68 32.52 25.8 32.47V31.54C25.68 31.49 25.56 31.44 25.44 31.37C24.14 30.62 23.69 28.95 24.44 27.65C25.19 26.35 26.86 25.91 28.16 26.65C28.28 26.72 28.38 26.79 28.49 26.88L29.3 26.42C29.28 26.29 29.27 26.16 29.27 26.02C29.27 24.52 30.49 23.3 31.99 23.3C33.49 23.3 34.71 24.52 34.71 26.02C34.71 26.15 34.7 26.29 34.68 26.42L35.49 26.88C35.59 26.8 35.7 26.72 35.82 26.65C37.12 25.9 38.79 26.35 39.54 27.65C39.9 28.28 40 29.01 39.81 29.71C39.62 30.41 39.17 31 38.55 31.36C38.43 31.43 38.31 31.48 38.19 31.53V32.46C38.31 32.51 38.43 32.56 38.55 32.63C39.85 33.38 40.29 35.05 39.54 36.35Z" fill="black"/>
</svg>
