<svg width="64" height="64" viewBox="0 0 64 64" fill="none" xmlns="http://www.w3.org/2000/svg">
<path d="M36.1999 32C36.1999 29.99 36.9699 28.08 38.3599 26.62C38.5399 26.43 38.5399 26.12 38.3599 25.93C36.6799 24.17 34.4199 23.2 31.9999 23.2C29.5799 23.2 27.3199 24.17 25.6399 25.93C25.4599 26.12 25.4599 26.43 25.6399 26.62C27.0299 28.08 27.7999 29.99 27.7999 32C27.7999 34.01 27.0299 35.92 25.6399 37.38C25.4599 37.57 25.4599 37.88 25.6399 38.07C27.3199 39.83 29.5799 40.8 31.9999 40.8C34.4199 40.8 36.6799 39.83 38.3599 38.07C38.5399 37.88 38.5399 37.57 38.3599 37.38C36.9699 35.92 36.1999 34.01 36.1999 32ZM31.9999 39.8C30.0099 39.8 28.1399 39.06 26.6899 37.71C28.0499 36.12 28.7999 34.11 28.7999 32C28.7999 29.89 28.0499 27.89 26.6899 26.29C28.1399 24.94 30.0099 24.2 31.9999 24.2C33.9899 24.2 35.8599 24.94 37.3099 26.29C35.9499 27.88 35.1999 29.89 35.1999 32C35.1999 34.11 35.9499 36.11 37.3099 37.71C35.8599 39.06 33.9899 39.8 31.9999 39.8Z" fill="black"/>
</svg>
