<svg width="64" height="64" viewBox="0 0 64 64" fill="none" xmlns="http://www.w3.org/2000/svg">
<path d="M41.95 26.98L44.74 28.84L45.3 28.01L32.75 19.62L32.54 19.29L32.39 19.38L32.24 19.28L32.02 19.61L18.71 28L19.24 28.85L22.05 27.08V41.53H18.9V42.53H45.1V41.53H41.95V26.98ZM40.95 41.53H34.51V31.44C34.51 29.94 34.21 27.94 31.63 27.94C29.05 27.94 28.75 29.9 28.75 31.82V32.32H29.75V31.82C29.75 29.39 30.38 28.94 31.63 28.94C33.02 28.94 33.51 29.59 33.51 31.44V41.53H23.05V26.45L32.37 20.58L40.95 26.32V41.53Z" fill="black"/>
</svg>
