<svg width="64" height="64" viewBox="0 0 64 64" fill="none" xmlns="http://www.w3.org/2000/svg">
<path d="M43.9501 28.94V31.94H38.7201C38.4701 28.62 35.82 25.96 32.5 25.72V20.69H31.5V25.72C28.18 25.97 25.5201 28.62 25.2801 31.94H19.05V35.94H20.05V32.94H25.2801C25.5301 36.26 28.18 38.92 31.5 39.16V43.31H32.5V39.16C35.82 38.91 38.4801 36.26 38.7201 32.94H44.9501V28.94H43.9501ZM32 38.19C28.83 38.19 26.25 35.61 26.25 32.44C26.25 29.27 28.83 26.69 32 26.69C35.17 26.69 37.75 29.27 37.75 32.44C37.75 35.61 35.17 38.19 32 38.19Z" fill="black"/>
</svg>
