<svg width="64" height="64" viewBox="0 0 64 64" fill="none" xmlns="http://www.w3.org/2000/svg">
<g clip-path="url(#clip0_61_172)">
<path d="M32 22.5C24.56 22.5 18.5 26.76 18.5 32C18.5 37.24 24.56 41.5 32 41.5C39.44 41.5 45.5 37.24 45.5 32C45.5 26.76 39.44 22.5 32 22.5ZM32 40.5C25.1 40.5 19.5 36.69 19.5 32C19.5 27.31 25.1 23.5 32 23.5C38.9 23.5 44.5 27.31 44.5 32C44.5 36.69 38.9 40.5 32 40.5ZM27.16 28.14C28.5 28.14 29.12 28.56 29.55 29.74L31.33 29.26C31.06 28.53 30.82 28.15 30.37 27.71C29.64 26.99 28.56 26.59 27.38 26.59C26.2 26.59 25.3 26.82 24.49 27.36C23.14 28.27 22.41 29.86 22.41 31.92C22.41 33.53 22.84 34.94 23.63 35.87C24.45 36.86 25.7 37.37 27.32 37.37C27.96 37.37 28.65 37.28 29.23 37.12C29.92 36.94 30.39 36.73 31.31 36.22C31.23 35.65 31.22 35.3 31.22 34.53V33.16C31.22 32.43 31.25 32.03 31.31 31.55C30.75 31.59 30.37 31.6 29.78 31.6H29.1C28.29 31.6 28.01 31.59 27.54 31.52V33.2C27.93 33.13 28.2 33.12 28.87 33.12H29.57V35.24C28.91 35.66 28.24 35.82 27.36 35.82C26.33 35.82 25.63 35.55 25.1 34.92C24.52 34.23 24.22 33.22 24.22 31.88C24.22 30.54 24.53 29.59 25.18 28.92C25.67 28.41 26.39 28.13 27.16 28.13V28.14ZM40.5 31.97C40.03 31.64 39.41 31.4 38.38 31.18C36.94 30.85 36.83 30.83 36.55 30.71C35.95 30.45 35.67 30.07 35.67 29.53C35.67 28.69 36.44 28.11 37.57 28.11C38.28 28.11 38.86 28.33 39.19 28.73C39.41 28.99 39.5 29.21 39.58 29.65L41.44 29.43C41.28 28.74 41.13 28.35 40.8 27.92C40.16 27.06 39.04 26.61 37.56 26.61C35.32 26.61 33.87 27.78 33.87 29.59C33.87 30.46 34.21 31.18 34.87 31.7C35.34 32.06 35.86 32.27 36.83 32.49C38.62 32.91 38.7 32.92 39.09 33.13C39.49 33.35 39.74 33.79 39.74 34.33C39.74 35.3 38.96 35.89 37.66 35.89C36.81 35.89 36.14 35.62 35.76 35.12C35.53 34.82 35.45 34.56 35.4 33.98L33.53 34.18C33.61 34.71 33.66 34.96 33.78 35.26C34.03 35.9 34.4 36.39 34.92 36.74C35.54 37.16 36.58 37.42 37.65 37.42C39.04 37.42 40.07 37.09 40.76 36.43C41.29 35.9 41.58 35.14 41.58 34.22C41.58 33.24 41.24 32.53 40.5 31.98V31.97Z" fill="black"/>
</g>
<defs>
<clipPath id="clip0_61_172">
<rect width="64" height="64" fill="white"/>
</clipPath>
</defs>
</svg>
