<svg width="64" height="64" viewBox="0 0 64 64" fill="none" xmlns="http://www.w3.org/2000/svg">
<path d="M26.98 32.78L24.7 31.1L28.11 25.44L27.25 24.92L23.6 30.97C23.47 31.19 23.52 31.48 23.73 31.63L26.38 33.58L26.97 32.77L26.98 32.78ZM28.75 35.92L29.2 36.68H25.61L31.09 28.46L30.26 27.91L24.26 36.91C24.16 37.06 24.15 37.26 24.24 37.42C24.33 37.58 24.5 37.68 24.68 37.68H29.8L30.25 38.44L31.11 37.93L29.61 35.41L28.75 35.92ZM32 21C25.93 21 21 25.93 21 32C21 38.07 25.93 43 32 43C38.07 43 43 38.07 43 32C43 25.93 38.07 21 32 21ZM32 42C26.48 42 22 37.52 22 32C22 26.48 26.48 22 32 22C37.52 22 42 26.48 42 32C42 37.52 37.52 42 32 42ZM39.43 25.85C39.34 25.74 39.2 25.68 39.06 25.68H35.12L35.19 25.26L34.2 25.11L34.11 25.69H31.69V26.69H33.95L32.19 38.11L33.18 38.26L34.96 26.68H38.5L37.19 38.12L38.18 38.23L39.55 26.23C39.57 26.09 39.52 25.95 39.43 25.84V25.85Z" fill="black"/>
</svg>
