<svg width="64" height="64" viewBox="0 0 64 64" fill="none" xmlns="http://www.w3.org/2000/svg">
<path d="M32.5 35.27V26H31.5V35.27L24.12 41.47L24.76 42.24L32 36.16L39.24 42.24L39.88 41.47L32.5 35.27ZM37.5 32.91C38.75 32.91 39.76 31.9 39.76 30.65C39.76 29.4 38.75 28.39 37.5 28.39C36.25 28.39 35.24 29.4 35.24 30.65C35.24 31.9 36.25 32.91 37.5 32.91ZM37.5 29.39C38.2 29.39 38.76 29.95 38.76 30.65C38.76 31.35 38.2 31.91 37.5 31.91C36.8 31.91 36.24 31.35 36.24 30.65C36.24 29.95 36.8 29.39 37.5 29.39ZM26.5 32.91C27.75 32.91 28.76 31.9 28.76 30.65C28.76 29.4 27.75 28.39 26.5 28.39C25.25 28.39 24.24 29.4 24.24 30.65C24.24 31.9 25.25 32.91 26.5 32.91ZM26.5 29.39C27.2 29.39 27.76 29.95 27.76 30.65C27.76 31.35 27.2 31.91 26.5 31.91C25.8 31.91 25.24 31.35 25.24 30.65C25.24 29.95 25.8 29.39 26.5 29.39Z" fill="black"/>
</svg>
