<svg width="64" height="64" viewBox="0 0 64 64" fill="none" xmlns="http://www.w3.org/2000/svg">
<path d="M32 22.7C26.87 22.7 22.7 26.87 22.7 32C22.7 37.13 26.87 41.3 32 41.3C37.13 41.3 41.3 37.13 41.3 32C41.3 26.87 37.13 22.7 32 22.7ZM32 40.3C27.42 40.3 23.7 36.58 23.7 32C23.7 27.42 27.42 23.7 32 23.7C36.58 23.7 40.3 27.42 40.3 32C40.3 36.58 36.58 40.3 32 40.3ZM30.81 30.8C30.94 30.31 30.98 30.23 31.08 29.94L30.14 28.92C29.87 28.97 29.6 28.98 29.06 28.98H27.76C26.99 28.98 26.63 28.97 26.26 28.91V30.84C26.62 30.79 27.07 30.77 27.61 30.77H28.82C28.51 31.84 28.2 32.49 27.6 33.3C27.07 34.01 26.56 34.5 25.76 35.09C26.37 35.61 26.8 36.1 27.23 36.72C28.17 35.92 28.71 35.3 29.31 34.38C29.98 33.35 30.39 32.35 30.81 30.82V30.8ZM36.03 33.28C35.57 32.85 35.19 32.45 34.85 32.02C35.67 31.35 36.5 30.59 37 30.02C37.3 29.6867 37.47 29.4967 37.51 29.45C37.55 29.4033 37.6233 29.33 37.73 29.23L35.89 27.95C35.45 28.78 34.81 29.54 33.82 30.4C33.5 29.77 33.34 29.36 33.15 28.63V27.74C33.15 27.15 33.18 26.78 33.24 26.39H31.03C31.09 26.78 31.12 27.14 31.12 27.71V35.53C31.12 35.76 31.06 35.8 30.68 35.8C30.23 35.8 29.77 35.76 29.01 35.68C29.33 36.4 29.43 36.79 29.51 37.56C30.02 37.58 30.59 37.61 31.09 37.61C32.7 37.61 33.15 37.27 33.13 36.08V33.86C33.13 33.6933 33.12 33.4367 33.1 33.09C33.1 32.94 33.1 32.93 33.09 32.36C33.51 33.21 33.93 33.87 34.49 34.57C35.19 35.45 35.85 36.03 36.92 36.73C37.41 35.81 37.64 35.44 38.23 34.77C37.32 34.31 36.76 33.93 36.02 33.26L36.03 33.28Z" fill="black"/>
</svg>
