<svg width="64" height="64" viewBox="0 0 64 64" fill="none" xmlns="http://www.w3.org/2000/svg">
<path d="M31.67 22.7C26.54 22.7 22.37 26.87 22.37 32C22.37 37.13 26.54 41.3 31.67 41.3C36.8 41.3 40.97 37.13 40.97 32C40.97 26.87 36.8 22.7 31.67 22.7ZM31.67 40.3C27.09 40.3 23.37 36.58 23.37 32C23.37 27.42 27.09 23.7 31.67 23.7C36.25 23.7 39.97 27.42 39.97 32C39.97 36.58 36.25 40.3 31.67 40.3ZM34.97 26.31H29.66C28.5 26.31 28.03 26.3 27.25 26.27C27.36 26.93 27.4 27.35 27.4 28.15V35.76C27.4 36.71 27.36 37.32 27.25 37.81H30.07C29.96 37.26 29.92 36.76 29.92 35.73V32.84H33.98C35.14 32.84 35.86 32.87 36.56 32.94V31.02C35.82 31.09 35.16 31.12 33.98 31.12H29.92V28.06H34.96C36.17 28.06 36.87 28.09 37.56 28.16V26.21C36.76 26.28 36.16 26.31 34.96 26.31H34.97Z" fill="black"/>
</svg>
