<svg width="64" height="64" viewBox="0 0 64 64" fill="none" xmlns="http://www.w3.org/2000/svg">
<path d="M34.86 19.87C34.96 19.31 34.95 18.72 34.82 18.13C34.36 16.14 32.62 14.74 30.57 14.74C30.53 14.74 30.5 14.75 30.46 14.75L29.04 10.31L28.09 10.61L29.46 14.89C28.39 15.17 27.47 15.83 26.88 16.78C26.26 17.77 26.06 18.94 26.33 20.07C26.48 20.74 26.79 21.33 27.19 21.83L23.78 25.9L24.55 26.54L27.9 22.54C28.56 23.05 29.36 23.36 30.23 23.43V31.49H26.94V32.49H34.5V31.49H31.23V23.39C31.34 23.37 31.45 23.38 31.56 23.35C32.96 23.03 34.04 22.05 34.58 20.82L39.75 22.07L39.99 21.1L34.88 19.86L34.86 19.87ZM31.32 22.38C31.07 22.44 30.81 22.47 30.57 22.47C29.04 22.47 27.66 21.42 27.3 19.86C26.88 18.05 28.01 16.25 29.82 15.83C30.07 15.77 30.33 15.74 30.57 15.74C32.1 15.74 33.48 16.79 33.84 18.35C34.26 20.16 33.13 21.96 31.32 22.38Z" fill="black"/>
</svg>
