<svg width="64" height="64" viewBox="0 0 64 64" fill="none" xmlns="http://www.w3.org/2000/svg">
<path d="M32 22.7C26.87 22.7 22.7 26.87 22.7 32C22.7 37.13 26.87 41.3 32 41.3C37.13 41.3 41.3 37.13 41.3 32C41.3 26.87 37.13 22.7 32 22.7ZM32 40.3C27.42 40.3 23.7 36.58 23.7 32C23.7 27.42 27.42 23.7 32 23.7C36.58 23.7 40.3 27.42 40.3 32C40.3 36.58 36.58 40.3 32 40.3ZM29.24 35.9V32.49H33.86C35.03 32.49 35.55 32.5 36.32 32.59V30.7C35.49 30.77 34.84 30.8 33.86 30.8H29.25V27.83H34.71C35.83 27.83 36.43 27.86 37.16 27.93V26.02C36.29 26.09 35.66 26.12 34.71 26.12H28.99C27.83 26.12 27.34 26.11 26.58 26.08C26.69 26.76 26.73 27.19 26.73 27.94V35.75C26.73 36.6 26.69 37.08 26.58 37.66C27.34 37.63 27.85 37.62 28.99 37.62H34.9C36.06 37.62 36.66 37.65 37.35 37.72V35.8C36.53 35.87 35.98 35.9 34.92 35.9H29.23H29.24Z" fill="black"/>
</svg>
