<svg width="64" height="64" viewBox="0 0 64 64" fill="none" xmlns="http://www.w3.org/2000/svg">
<path d="M40.2999 23.2H23.7L23.2 23.7V40.3L23.7 40.8H40.2999L40.7999 40.3V23.7L40.2999 23.2ZM39.7999 39.8H24.2V24.2H39.7999V39.8ZM26.3799 38.18H28.83C28.73 37.54 28.7 37.08 28.7 36.18V32.67H35.31V36.18C35.31 37.1 35.28 37.58 35.18 38.18H37.63C37.53 37.53 37.5 37.08 37.5 36.18V27.81C37.5 26.93 37.53 26.46 37.63 25.82H35.18C35.28 26.38 35.31 26.94 35.31 27.82V30.8H28.7V27.8C28.7 26.98 28.73 26.47 28.83 25.81H26.3799C26.4799 26.42 26.51 26.9 26.51 27.81V36.17C26.51 37.09 26.4799 37.58 26.3799 38.17V38.18Z" fill="black"/>
</svg>
