<svg width="64" height="64" viewBox="0 0 64 64" fill="none" xmlns="http://www.w3.org/2000/svg">
<path d="M32 22.7C26.87 22.7 22.7 26.87 22.7 32C22.7 37.13 26.87 41.3 32 41.3C37.13 41.3 41.2999 37.13 41.2999 32C41.2999 26.87 37.13 22.7 32 22.7ZM32 40.3C27.42 40.3 23.7 36.58 23.7 32C23.7 27.42 27.42 23.7 32 23.7C36.58 23.7 40.2999 27.42 40.2999 32C40.2999 36.58 36.58 40.3 32 40.3ZM34.3899 33.89H36.13C36.85 33.89 37.48 33.91 37.9 33.96V32.05C37.51 32.1 36.86 32.12 36.11 32.12H35.16V29.97H35.88C36.52 29.97 36.99 29.99 37.41 30.04V28.13C37 28.18 36.54 28.2 35.88 28.2H35.16V27.69C35.16 27.03 35.17 26.76 35.22 26.39H33.11C33.16 26.74 33.1699 27.01 33.1699 27.67V28.21H30.7V27.64C30.7 26.97 30.71 26.68 30.76 26.36H28.65C28.7 26.72 28.7099 27 28.7099 27.66V28.21H28.02C27.38 28.21 26.97 28.19 26.5 28.14V30.05C26.94 30 27.37 29.98 28.02 29.98H28.7099V32.13H27.78C27.03 32.13 26.3999 32.11 25.9799 32.06V33.97C26.3999 33.92 27.05 33.9 27.78 33.9H29.41C29.05 34.32 28.8599 34.49 28.4699 34.77C27.7899 35.27 27.05 35.63 25.95 36.02C26.52 36.57 26.86 36.97 27.29 37.61C29.01 36.87 30 36.15 31.25 34.76L29.53 33.9H34.2L32.5499 34.77C33.8899 36.18 34.85 36.84 36.7 37.64C37.16 36.91 37.45 36.55 38 35.98C36.2 35.35 35.35 34.87 34.36 33.9L34.3899 33.89ZM33.18 32.13H30.7099V29.98H33.18V32.13Z" fill="black"/>
</svg>
