<svg width="64" height="64" viewBox="0 0 64 64" fill="none" xmlns="http://www.w3.org/2000/svg">
<path d="M32 38.38C28.48 38.38 25.62 35.52 25.62 32C25.62 28.48 28.48 25.62 32 25.62C35.52 25.62 38.38 28.48 38.38 32C38.38 35.52 35.52 38.38 32 38.38ZM32 26.62C29.03 26.62 26.62 29.03 26.62 32C26.62 34.97 29.03 37.38 32 37.38C34.97 37.38 37.38 34.97 37.38 32C37.38 29.03 34.97 26.62 32 26.62Z" fill="black"/>
<path d="M32.5 21.08H31.5V26.5H32.5V21.08Z" fill="black"/>
<path d="M32.5 37.5H31.5V42.92H32.5V37.5Z" fill="black"/>
<path d="M42.92 31.5H37.5V32.5H42.92V31.5Z" fill="black"/>
<path d="M26.5 31.5H21.08V32.5H26.5V31.5Z" fill="black"/>
<path d="M32 30.74C32.7 30.74 33.26 31.3 33.26 32C33.26 32.7 32.7 33.26 32 33.26C31.3 33.26 30.74 32.7 30.74 32C30.74 31.3 31.3 30.74 32 30.74ZM32 29.74C30.75 29.74 29.74 30.75 29.74 32C29.74 33.25 30.75 34.26 32 34.26C33.25 34.26 34.26 33.25 34.26 32C34.26 30.75 33.25 29.74 32 29.74Z" fill="black"/>
</svg>
