<svg width="64" height="64" viewBox="0 0 64 64" fill="none" xmlns="http://www.w3.org/2000/svg">
<path d="M32 22.7C26.87 22.7 22.7 26.87 22.7 32C22.7 37.13 26.87 41.3 32 41.3C37.13 41.3 41.3 37.13 41.3 32C41.3 26.87 37.13 22.7 32 22.7ZM36.87 25.29H35.39C35.29 25.93 35.16 26.47 34.88 27.3L32.01 35.66L29.13 27.3C28.89 26.59 28.7 25.88 28.6 25.29H27.14C28.51 24.3 30.19 23.7 32.01 23.7C33.83 23.7 35.51 24.29 36.88 25.29H36.87ZM23.7 32C23.7 29.74 24.61 27.69 26.07 26.2C26.09 26.65 26.11 27.15 26.11 27.79V36.26C26.11 36.9 26.1 37.39 26.08 37.82C24.61 36.32 23.71 34.28 23.71 32.01L23.7 32ZM27.13 38.71H27.98C27.89 38.05 27.87 37.41 27.87 36.25V30.72C27.87 30.35 27.81 28.97 27.76 28.07C28.09 29.44 28.21 29.89 28.48 30.65L30.53 36.43C30.86 37.37 31.08 38.17 31.16 38.71H32.84C32.93 38.2 33.18 37.26 33.47 36.47L35.6 30.53C35.8 29.92 36.07 28.98 36.25 28.07C36.24 28.32 36.19 29.18 36.14 30.65V36.25C36.14 37.41 36.11 38.02 36.03 38.71H36.88C35.51 39.7 33.83 40.3 32.01 40.3C30.19 40.3 28.51 39.71 27.14 38.71H27.13ZM37.92 37.81C37.9 37.41 37.89 36.92 37.89 36.25V27.78C37.89 27.1 37.9 26.64 37.93 26.19C39.39 27.69 40.3 29.73 40.3 31.99C40.3 34.25 39.39 36.3 37.92 37.8V37.81Z" fill="black"/>
</svg>
