<svg width="64" height="64" viewBox="0 0 64 64" fill="none" xmlns="http://www.w3.org/2000/svg">
<path d="M32 22.7C26.87 22.7 22.7 26.87 22.7 32C22.7 37.13 26.87 41.3 32 41.3C37.13 41.3 41.3 37.13 41.3 32C41.3 26.87 37.13 22.7 32 22.7ZM32 40.3C27.42 40.3 23.7 36.58 23.7 32C23.7 27.42 27.42 23.7 32 23.7C36.58 23.7 40.3 27.42 40.3 32C40.3 36.58 36.58 40.3 32 40.3ZM32.34 27.73C33.91 27.73 34.65 28.19 35.15 29.51L37.24 28.98C36.92 28.17 36.64 27.75 36.11 27.26C35.25 26.47 33.99 26.02 32.6 26.02C31.21 26.02 30.16 26.28 29.21 26.87C27.62 27.88 26.77 29.64 26.77 31.94C26.77 33.73 27.27 35.29 28.21 36.33C29.17 37.43 30.64 37.99 32.55 37.99C33.3 37.99 34.11 37.89 34.8 37.72C35.61 37.52 36.16 37.29 37.24 36.72C37.15 36.08 37.13 35.69 37.13 34.84V33.32C37.13 32.51 37.16 32.06 37.24 31.53C36.58 31.57 36.14 31.59 35.44 31.59H34.65C33.7 31.59 33.37 31.58 32.82 31.5V33.36C33.28 33.29 33.6 33.27 34.38 33.27H35.21V35.62C34.43 36.08 33.65 36.27 32.61 36.27C31.4 36.27 30.58 35.97 29.95 35.27C29.26 34.51 28.91 33.38 28.91 31.89C28.91 30.4 29.28 29.35 30.04 28.6C30.62 28.04 31.46 27.72 32.36 27.72L32.34 27.73Z" fill="black"/>
</svg>
