<svg width="64" height="64" viewBox="0 0 64 64" fill="none" xmlns="http://www.w3.org/2000/svg">
<path d="M32 29.74C30.75 29.74 29.74 30.75 29.74 32C29.74 33.25 30.75 34.26 32 34.26C33.25 34.26 34.26 33.25 34.26 32C34.26 30.75 33.25 29.74 32 29.74ZM32 33.26C31.3 33.26 30.74 32.7 30.74 32C30.74 31.3 31.3 30.74 32 30.74C32.7 30.74 33.26 31.3 33.26 32C33.26 32.7 32.7 33.26 32 33.26ZM42.92 32.5V31.5H38.35C38.24 30.12 37.69 28.86 36.84 27.86L40.07 24.63L39.36 23.92L36.13 27.15C35.13 26.3 33.87 25.75 32.49 25.64V21.07H31.49V25.64C30.11 25.75 28.85 26.3 27.85 27.15L24.62 23.92L23.91 24.63L27.14 27.86C26.29 28.86 25.74 30.12 25.63 31.5H21.06V32.5H25.63C25.74 33.88 26.29 35.14 27.14 36.14L23.91 39.37L24.62 40.08L27.85 36.85C28.85 37.7 30.11 38.25 31.49 38.36V42.93H32.49V38.36C33.87 38.25 35.13 37.7 36.13 36.85L39.36 40.08L40.07 39.37L36.84 36.14C37.69 35.14 38.24 33.88 38.35 32.5H42.92ZM32 37.38C29.03 37.38 26.62 34.97 26.62 32C26.62 29.03 29.03 26.62 32 26.62C34.97 26.62 37.38 29.03 37.38 32C37.38 34.97 34.97 37.38 32 37.38Z" fill="black"/>
</svg>
