<svg width="64" height="64" viewBox="0 0 64 64" fill="none" xmlns="http://www.w3.org/2000/svg">
<path d="M32 22.7C26.87 22.7 22.7 26.87 22.7 32C22.7 37.13 26.87 41.3 32 41.3C37.13 41.3 41.2999 37.13 41.2999 32C41.2999 26.87 37.13 22.7 32 22.7ZM32 40.3C27.42 40.3 23.7 36.58 23.7 32C23.7 27.42 27.42 23.7 32 23.7C36.58 23.7 40.2999 27.42 40.2999 32C40.2999 36.58 36.58 40.3 32 40.3ZM28.09 26.63C27.34 26.63 26.6899 26.61 26.1299 26.56V28.48C26.7299 28.43 27.38 28.41 28.09 28.41H30.61V35.54C30.61 36.45 30.6 36.88 30.53 37.45H32.7599C32.6999 36.87 32.68 36.44 32.68 35.54V31.26C33.9 31.99 34.76 32.63 35.95 33.69L37.2999 32.17C36.4099 31.44 35.8599 31.04 34.7799 30.38C34.1399 29.98 33.79 29.79 32.68 29.23V28.4H35.91C36.63 28.4 37.2199 28.42 37.8699 28.47V26.55C37.2799 26.6 36.64 26.62 35.91 26.62H28.09V26.63Z" fill="black"/>
</svg>
