<svg width="64" height="64" viewBox="0 0 64 64" fill="none" xmlns="http://www.w3.org/2000/svg">
<path d="M35.82 30.01L35.15 32.41C35.13 32.49 35.04 32.88 35.01 33.05C34.9833 33.1633 34.9633 33.25 34.95 33.31C34.93 33.2 34.91 33.19 34.88 33.03C34.81 32.78 34.75 32.55 34.71 32.44L33.82 29.72C33.71 29.37 33.56 28.81 33.52 28.58H32.24C32.2 28.82 32.06 29.37 31.94 29.72L31.08 32.33C31.03 32.47 30.83 33.18 30.8 33.3C30.7 32.83 30.63 32.5 30.58 32.34L29.92 30C29.79 29.53 29.68 28.92 29.66 28.57H27.89C28.06 29.01 28.23 29.51 28.39 30.06L29.71 34.32C29.9 34.93 29.95 35.11 30.02 35.46H31.41C31.46 35.21 31.59 34.73 31.72 34.32L32.64 31.51C32.68 31.39 32.82 30.9 32.88 30.68C33.01 31.17 33.08 31.44 33.11 31.48L34.03 34.31C34.17 34.78 34.28 35.16 34.33 35.45H35.72C35.78 35.11 35.84 34.89 36.02 34.31L37.35 30.05C37.66 29.05 37.69 28.96 37.84 28.56H36.08C36.06 28.94 35.96 29.47 35.82 29.99V30.01ZM53.63 30.49C52.99 29.22 51.35 29.09 49.62 28.96C48.07 28.84 46.32 28.71 44.96 27.8C43.68 26.95 42.88 26.01 42.18 25.18C41.29 24.13 40.52 23.22 39.18 23.22C37.1 23.22 37.02 23.24 34.96 24.27C34.56 24.47 32.5 24.43 30.5 24.39C23.08 24.24 10.66 24.01 10.18 31.18C10.09 32.5 10.61 33.72 11.72 34.82C16.1 39.15 29.37 40.79 36.38 40.79C37.27 40.79 38.06 40.76 38.71 40.71C40.63 40.56 41.58 38.8 42.27 37.52C42.48 37.12 42.69 36.75 42.87 36.52C43.22 36.08 44.02 36.04 45.12 35.98C45.9 35.94 46.78 35.9 47.78 35.7C49.41 35.37 52.76 33.92 53.61 32.18C53.89 31.6 53.9 31.02 53.63 30.48V30.49ZM52.71 31.75C52.07 33.05 49.2 34.4 47.59 34.73C46.67 34.91 45.82 34.96 45.08 35C43.77 35.07 42.74 35.12 42.1 35.91C41.86 36.21 41.65 36.6 41.4 37.06C40.79 38.2 40.02 39.62 38.65 39.73C33.12 40.15 17.08 38.72 12.43 34.12C11.52 33.22 11.12 32.29 11.18 31.26C11.53 26.01 20.31 25.36 27.02 25.36C28.27 25.36 29.45 25.38 30.48 25.4C33.39 25.46 34.81 25.47 35.4 25.17C36.66 24.5366 37.92 24.22 39.18 24.22C40.02 24.22 40.52 24.77 41.42 25.83C42.13 26.66 43.01 27.7 44.41 28.64C45.99 29.69 47.88 29.84 49.55 29.96C51.06 30.08 52.36 30.18 52.74 30.94C52.87 31.19 52.86 31.45 52.71 31.75Z" fill="black"/>
</svg>
