<svg width="16" height="16" viewBox="0 0 16 16" fill="none" xmlns="http://www.w3.org/2000/svg">
<path d="M7 3C7 1.35 5.65 0 4 0C2.35 0 1 1.35 1 3C1 4.65 2.35 6 4 6C5.65 6 7 4.65 7 3ZM4 5C2.9 5 2 4.1 2 3C2 1.9 2.9 1 4 1C5.1 1 6 1.9 6 3C6 4.1 5.1 5 4 5ZM0 8V9C1.1 9 2 9.9 2 11C2 12.1 1.1 13 0 13V14C1.65 14 3 12.65 3 11C3 9.35 1.65 8 0 8ZM16 9V8C14.35 8 13 9.35 13 11C13 12.65 14.35 14 16 14V13C14.9 13 14 12.1 14 11C14 9.9 14.9 9 16 9ZM8 8C6.35 8 5 9.35 5 11C5 12.65 6.35 14 8 14C9.65 14 11 12.65 11 11C11 9.35 9.65 8 8 8ZM8 13C6.9 13 6 12.1 6 11C6 9.9 6.9 9 8 9C9.1 9 10 9.9 10 11C10 12.1 9.1 13 8 13ZM15 3C15 1.35 13.65 0 12 0C10.35 0 9 1.35 9 3C9 4.65 10.35 6 12 6C13.65 6 15 4.65 15 3ZM12 5C10.9 5 10 4.1 10 3C10 1.9 10.9 1 12 1C13.1 1 14 1.9 14 3C14 4.1 13.1 5 12 5Z" fill="black"/>
</svg>
