<svg width="64" height="64" viewBox="0 0 64 64" fill="none" xmlns="http://www.w3.org/2000/svg">
<path d="M31.5 18.47C29 18.47 26.98 20.5 26.98 23C26.98 25.5 29.01 27.53 31.5 27.53C33.99 27.53 36.02 25.5 36.02 23C36.02 20.5 33.99 18.47 31.5 18.47ZM31.5 26.78C29.42 26.78 27.73 25.09 27.73 23C27.73 20.91 29.42 19.22 31.5 19.22C33.58 19.22 35.27 20.91 35.27 23C35.27 25.09 33.58 26.78 31.5 26.78ZM21.5 36.47C19 36.47 16.98 38.5 16.98 41C16.98 43.5 19.01 45.53 21.5 45.53C23.99 45.53 26.02 43.5 26.02 41C26.02 38.5 23.99 36.47 21.5 36.47ZM21.5 44.78C19.42 44.78 17.73 43.09 17.73 41C17.73 38.91 19.42 37.22 21.5 37.22C23.58 37.22 25.27 38.91 25.27 41C25.27 43.09 23.58 44.78 21.5 44.78ZM42.5 36.47C40 36.47 37.98 38.5 37.98 41C37.98 43.5 40.01 45.53 42.5 45.53C44.99 45.53 47.02 43.5 47.02 41C47.02 38.5 44.99 36.47 42.5 36.47ZM42.5 44.78C40.42 44.78 38.73 43.09 38.73 41C38.73 38.91 40.42 37.22 42.5 37.22C44.58 37.22 46.27 38.91 46.27 41C46.27 43.09 44.58 44.78 42.5 44.78Z" fill="black"/>
</svg>
