<svg width="64" height="64" viewBox="0 0 64 64" fill="none" xmlns="http://www.w3.org/2000/svg">
<g clip-path="url(#clip0_61_199)">
<path d="M50.25 25.68C50.17 25.51 49.99 25.4 49.8 25.4H24.6C24.45 25.4 24.3 25.47 24.21 25.59L19.33 31.73C19.16 31.79 19.04 31.94 19.01 32.13L14.21 38.18C14.09 38.33 14.07 38.54 14.15 38.71C14.23 38.88 14.41 38.99 14.6 38.99H39.8C39.89 38.99 39.98 38.96 40.05 38.91C40.05 38.91 40.07 38.91 40.08 38.91L48.78 32.91C49.01 32.75 49.06 32.44 48.91 32.21C48.75 31.98 48.44 31.92 48.21 32.08L42.27 36.18L50.19 26.2C50.31 26.05 50.33 25.84 50.25 25.67V25.68ZM40.23 26.4L36.02 31.7H28.96L33.17 26.4H40.23ZM24.84 26.4H31.9L27.69 31.7H20.63L24.84 26.4ZM15.64 38L19.85 32.7H26.91L22.7 38H15.64ZM23.97 38L28.18 32.7H35.24L31.03 38H23.97ZM39.56 38H32.3L36.51 32.7H43.77L39.56 38ZM44.56 31.7H37.3L41.51 26.4H48.77L44.56 31.7Z" fill="black"/>
</g>
<defs>
<clipPath id="clip0_61_199">
<rect width="64" height="64" fill="white"/>
</clipPath>
</defs>
</svg>
