<svg width="64" height="64" viewBox="0 0 64 64" fill="none" xmlns="http://www.w3.org/2000/svg">
<path d="M32.98 24H26.71V40.46H27.71V33.51H32.98C34.38 33.51 37.28 32.35 37.28 28.75C37.28 25.15 34.38 24 32.98 24ZM32.98 32.51H27.71V25H32.98C33.68 25 36.28 25.64 36.28 28.75C36.28 31.86 33.68 32.51 32.98 32.51ZM32 20.5C25.66 20.5 20.5 25.66 20.5 32C20.5 38.34 25.66 43.5 32 43.5C38.34 43.5 43.5 38.34 43.5 32C43.5 25.66 38.34 20.5 32 20.5ZM32 42.5C26.2 42.5 21.5 37.8 21.5 32C21.5 26.2 26.2 21.5 32 21.5C37.8 21.5 42.5 26.2 42.5 32C42.5 37.8 37.8 42.5 32 42.5Z" fill="black"/>
</svg>
