<svg width="64" height="64" viewBox="0 0 64 64" fill="none" xmlns="http://www.w3.org/2000/svg">
<path d="M40 36.32C38.52 36.32 37.32 37.52 37.32 39C37.32 40.48 38.52 41.68 40 41.68C41.48 41.68 42.68 40.48 42.68 39C42.68 37.52 41.48 36.32 40 36.32ZM40 40.68C39.07 40.68 38.32 39.93 38.32 39C38.32 38.07 39.07 37.32 40 37.32C40.93 37.32 41.68 38.07 41.68 39C41.68 39.93 40.93 40.68 40 40.68ZM32 22.32C30.52 22.32 29.32 23.52 29.32 25C29.32 26.48 30.52 27.68 32 27.68C33.48 27.68 34.68 26.48 34.68 25C34.68 23.52 33.48 22.32 32 22.32ZM32 26.68C31.07 26.68 30.32 25.93 30.32 25C30.32 24.07 31.07 23.32 32 23.32C32.93 23.32 33.68 24.07 33.68 25C33.68 25.93 32.93 26.68 32 26.68ZM24 36.32C22.52 36.32 21.32 37.52 21.32 39C21.32 40.48 22.52 41.68 24 41.68C25.48 41.68 26.68 40.48 26.68 39C26.68 37.52 25.48 36.32 24 36.32ZM24 40.68C23.07 40.68 22.32 39.93 22.32 39C22.32 38.07 23.07 37.32 24 37.32C24.93 37.32 25.68 38.07 25.68 39C25.68 39.93 24.93 40.68 24 40.68Z" fill="black"/>
</svg>
