<svg width="64" height="64" viewBox="0 0 64 64" fill="none" xmlns="http://www.w3.org/2000/svg">
<path d="M29.9301 25.78L33.6101 23.66C33.7201 23.59 33.8101 23.48 33.8401 23.36C33.8701 23.24 33.8601 23.1 33.7901 22.98L31.7101 19.39C31.6401 19.28 31.5301 19.19 31.4101 19.16C31.2901 19.13 31.1501 19.14 31.0301 19.21L27.3501 21.34L25.3901 17.94L24.5201 18.44L26.4801 21.84L23.6701 23.46C23.5501 23.53 23.4701 23.64 23.4301 23.77L22.0401 29.36C21.9901 29.55 22.0601 29.76 22.2201 29.88C22.3101 29.95 22.4101 29.98 22.5201 29.98C22.6101 29.98 22.6901 29.96 22.7701 29.91L29.0501 26.29L37.0101 40.08L37.8801 39.58L29.9201 25.79L29.9301 25.78ZM23.3101 28.46L24.3601 24.21L26.9901 22.69L28.5701 25.42L23.3101 28.46ZM27.8601 22.19L31.1101 20.31L32.6901 23.04L29.4401 24.92L27.8601 22.19Z" fill="black"/>
</svg>
