<svg width="64" height="64" viewBox="0 0 64 64" fill="none" xmlns="http://www.w3.org/2000/svg">
<path d="M38.2 29.3L32.25 35.25L26.3 29.3L25.59 30.01L32.24 36.66L38.89 30.01L38.18 29.3H38.2ZM32.25 31.84C33.26 31.84 34.09 31.01 34.09 30C34.09 28.99 33.26 28.16 32.25 28.16C31.24 28.16 30.41 28.99 30.41 30C30.41 31.01 31.24 31.84 32.25 31.84ZM32.25 29.16C32.71 29.16 33.09 29.54 33.09 30C33.09 30.46 32.71 30.84 32.25 30.84C31.79 30.84 31.41 30.46 31.41 30C31.41 29.54 31.79 29.16 32.25 29.16Z" fill="black"/>
</svg>
