<svg width="64" height="64" viewBox="0 0 64 64" fill="none" xmlns="http://www.w3.org/2000/svg">
<path d="M32 28.16C30.99 28.16 30.16 28.99 30.16 30C30.16 31.01 30.99 31.84 32 31.84C33.01 31.84 33.84 31.01 33.84 30C33.84 28.99 33.01 28.16 32 28.16ZM32 30.84C31.54 30.84 31.16 30.46 31.16 30C31.16 29.54 31.54 29.16 32 29.16C32.46 29.16 32.84 29.54 32.84 30C32.84 30.46 32.46 30.84 32 30.84ZM32 23.96C28.67 23.96 25.96 26.67 25.96 30C25.96 33.33 28.67 36.04 32 36.04C35.33 36.04 38.04 33.33 38.04 30C38.04 26.67 35.33 23.96 32 23.96ZM32 35.04C29.22 35.04 26.96 32.78 26.96 30C26.96 27.22 29.22 24.96 32 24.96C34.78 24.96 37.04 27.22 37.04 30C37.04 32.78 34.78 35.04 32 35.04Z" fill="black"/>
</svg>
