<svg width="64" height="64" viewBox="0 0 64 64" fill="none" xmlns="http://www.w3.org/2000/svg">
<g clip-path="url(#clip0_61_214)">
<path d="M22.46 25.93L21.49 25.32C20.6 26.68 20.23 27.42 19.87 28.51C19.46 29.75 19.24 31.07 19.24 32.49C19.24 33.91 19.45 35.23 19.87 36.47C20.24 37.57 20.61 38.31 21.49 39.67L22.46 39.06C21.6 37.74 21.26 37.05 20.93 35.97C20.58 34.87 20.41 33.7 20.41 32.49C20.41 31.28 20.58 30.13 20.93 29.03C21.27 27.94 21.6 27.25 22.46 25.94V25.93ZM26.67 27.44C26.67 27.82 26.66 28.15 26.62 28.47C27 28.44 27.31 28.44 27.89 28.44H36.87C37.39 28.44 37.76 28.45 38.14 28.47C38.11 28.22 38.09 27.89 38.09 27.43V26.13C38.09 25.75 38.11 25.42 38.17 25.06H36.36C36.41 25.38 36.44 25.73 36.44 26.06V26.95H33.15V25.6C33.15 25.08 33.17 24.73 33.24 24.34H31.37C31.43 24.74 31.46 25.08 31.46 25.6V26.95H28.32V26.05C28.32 25.68 28.33 25.34 28.4 25.07H26.58C26.64 25.38 26.67 25.74 26.67 26.16V27.46V27.44ZM44.13 28.51C43.76 27.42 43.39 26.69 42.51 25.32L41.55 25.93C42.41 27.25 42.75 27.94 43.08 29.02C43.43 30.12 43.6 31.26 43.6 32.48C43.6 33.7 43.43 34.85 43.08 35.96C42.74 37.05 42.41 37.74 41.55 39.05L42.51 39.66C43.4 38.3 43.77 37.56 44.13 36.46C44.56 35.22 44.76 33.92 44.76 32.48C44.76 31.04 44.56 29.74 44.13 28.5V28.51ZM27.38 29.55C26.49 29.55 25.97 29.52 25.51 29.46V31.18C26.02 31.13 26.52 31.1 27.36 31.1H29.55C29.09 31.96 28.66 32.51 27.97 33.15C27.17 33.89 26.47 34.33 25.18 34.91C25.64 35.49 25.88 35.91 26.11 36.55C26.98 36.06 27.47 35.74 28.13 35.2V37.04C28.13 37.53 28.1 37.97 28.04 38.43H29.85V37.79H36.06V38.45H37.85C37.79 37.88 37.77 37.49 37.77 36.9V33.93C37.77 33.47 37.78 33.09 37.83 32.61C37.54 32.66 37.23 32.67 36.53 32.67H30.51C30.86 32.18 31.06 31.84 31.49 31.09H37.48C38.28 31.09 38.83 31.12 39.35 31.17V29.45C38.91 29.51 38.35 29.54 37.45 29.54H27.37L27.38 29.55ZM36.08 34.18V36.28H29.81V34.18H36.08Z" fill="black"/>
</g>
<defs>
<clipPath id="clip0_61_214">
<rect width="64" height="64" fill="white"/>
</clipPath>
</defs>
</svg>
