<svg width="64" height="64" viewBox="0 0 64 64" fill="none" xmlns="http://www.w3.org/2000/svg">
<path d="M36.24 15.93L39.7 12.9L43.19 15.93L46.66 12.21L45.93 11.53L43.12 14.54L39.7 11.57L36.31 14.54L33.47 11.53L33.45 11.55V11.53H32.45V22.18L23.58 37.54H42.31L33.44 22.18V12.97L36.23 15.93H36.24ZM40.59 36.54H25.32L32.95 23.32L40.58 36.54H40.59ZM30.45 31.68C30.45 33.06 31.57 34.18 32.95 34.18C34.33 34.18 35.45 33.06 35.45 31.68C35.45 30.3 34.33 29.18 32.95 29.18C31.57 29.18 30.45 30.3 30.45 31.68ZM34.45 31.68C34.45 32.51 33.78 33.18 32.95 33.18C32.12 33.18 31.45 32.51 31.45 31.68C31.45 30.85 32.12 30.18 32.95 30.18C33.78 30.18 34.45 30.85 34.45 31.68Z" fill="black"/>
</svg>
