<svg width="64" height="64" viewBox="0 0 64 64" fill="none" xmlns="http://www.w3.org/2000/svg">
<path d="M32.85 36.11V30.56H35.9C36.71 30.56 37.28 30.59 37.88 30.65V28.86C37.3 28.92 36.78 28.95 35.9 28.95H32.85V26.18C32.85 25.49 32.88 24.94 32.96 24.39H30.97C31.05 24.96 31.08 25.52 31.08 26.18V28.95H28.31C27.48 28.95 26.85 28.92 26.32 28.86V30.65C26.9 30.59 27.5 30.56 28.31 30.56H31.08V36.11H27.37C26.45 36.11 25.75 36.08 25.18 36.02V37.84C25.79 37.76 26.5 37.73 27.37 37.73H36.87C37.73 37.73 38.4 37.76 39.01 37.84V36.02C38.46 36.08 37.74 36.11 36.87 36.11H32.86H32.85ZM22.15 25.87L21.18 25.26C20.29 26.62 19.92 27.36 19.56 28.45C19.15 29.69 18.93 31.01 18.93 32.43C18.93 33.85 19.14 35.17 19.56 36.41C19.93 37.51 20.3 38.25 21.18 39.61L22.15 39C21.29 37.68 20.95 36.99 20.62 35.91C20.27 34.81 20.1 33.64 20.1 32.43C20.1 31.22 20.27 30.07 20.62 28.97C20.96 27.88 21.29 27.19 22.15 25.88V25.87ZM44.44 28.45C44.07 27.36 43.7 26.63 42.82 25.26L41.86 25.87C42.72 27.19 43.06 27.88 43.39 28.96C43.74 30.06 43.91 31.2 43.91 32.42C43.91 33.64 43.74 34.79 43.39 35.9C43.05 36.99 42.72 37.68 41.86 38.99L42.82 39.6C43.71 38.24 44.08 37.5 44.44 36.4C44.87 35.16 45.07 33.86 45.07 32.42C45.07 30.98 44.87 29.68 44.44 28.44V28.45Z" fill="black"/>
</svg>
