<svg width="64" height="64" viewBox="0 0 64 64" fill="none" xmlns="http://www.w3.org/2000/svg">
<path d="M36.2 26.5H27.8V27.5H36.2V26.5ZM22.82 33.73L27.34 40.81L28.18 40.27L23.66 33.19L22.82 33.73ZM49.19 35.01C48.53 31.45 46.18 28.5 42.87 27.05C42.87 27.03 42.87 27.01 42.87 27C42.87 21 37.99 16.12 31.99 16.12C25.99 16.12 21.11 21 21.11 27C21.11 27.02 21.11 27.03 21.11 27.05C17.94 28.45 15.62 31.26 14.87 34.65C13.57 40.5 17.28 46.32 23.14 47.62C23.92 47.79 24.72 47.88 25.5 47.88C27.82 47.88 30.09 47.13 31.99 45.71C34.42 47.52 37.49 48.25 40.47 47.69C46.37 46.6 50.27 40.91 49.18 35.01H49.19ZM40.3 46.71C37.47 47.23 34.56 46.5 32.31 44.69L32 44.44L31.69 44.69C29.34 46.58 26.3 47.29 23.37 46.64C18.05 45.46 14.69 40.18 15.86 34.86C16.56 31.68 18.8 29.05 21.83 27.83L22.16 27.7L22.14 27.18C22.14 27.12 22.14 27.06 22.14 27C22.14 21.55 26.57 17.12 32.02 17.12C37.47 17.12 41.9 21.55 41.9 27C41.9 27.07 41.9 27.13 41.9 27.19L41.88 27.71L42.21 27.84C45.37 29.11 47.63 31.86 48.25 35.2C49.24 40.55 45.7 45.72 40.34 46.71H40.3ZM35.71 40.18L36.53 40.75L41.29 33.83L40.47 33.26L35.71 40.18Z" fill="black"/>
</svg>
