<svg width="64" height="64" viewBox="0 0 64 64" fill="none" xmlns="http://www.w3.org/2000/svg">
<path d="M32 28.16C30.99 28.16 30.16 28.99 30.16 30C30.16 31.01 30.99 31.84 32 31.84C33.01 31.84 33.84 31.01 33.84 30C33.84 28.99 33.01 28.16 32 28.16ZM32 30.84C31.54 30.84 31.16 30.46 31.16 30C31.16 29.54 31.54 29.16 32 29.16C32.46 29.16 32.84 29.54 32.84 30C32.84 30.46 32.46 30.84 32 30.84ZM22.63 24.14L32 40.36L41.37 24.14H22.64H22.63ZM24.37 25.14H39.64L32.01 38.36L24.38 25.14H24.37Z" fill="black"/>
</svg>
