<svg width="64" height="64" viewBox="0 0 64 64" fill="none" xmlns="http://www.w3.org/2000/svg">
<path d="M34.5999 26.02L34.57 26.01C33.78 25.66 32.92 25.46 32 25.46C31.08 25.46 30.22 25.66 29.43 26.01H29.4C27.2199 27.02 25.7 29.21 25.7 31.76C25.7 32.03 25.73 32.3 25.76 32.56H26.77C26.73 32.3 26.7 32.03 26.7 31.76C26.7 29.79 27.8 28.08 29.4 27.17V32.56H30.4V26.73C30.91 26.57 31.44 26.46 32 26.46C32.56 26.46 33.0899 26.57 33.5999 26.73V32.56H34.5999V27.17C36.1999 28.08 37.2999 29.79 37.2999 31.76C37.2999 32.03 37.2699 32.3 37.2299 32.56H38.24C38.27 32.3 38.2999 32.03 38.2999 31.76C38.2999 29.21 36.7799 27.02 34.5999 26.03V26.02Z" fill="black"/>
</svg>
