<svg width="64" height="64" viewBox="0 0 64 64" fill="none" xmlns="http://www.w3.org/2000/svg">
<path d="M40.65 23.35C40.55 23.25 40.42 23.2 40.3 23.2H23.7C23.57 23.2 23.44 23.25 23.35 23.35C23.26 23.45 23.2 23.58 23.2 23.7V40.3C23.2 40.43 23.25 40.56 23.35 40.65C23.45 40.74 23.58 40.8 23.7 40.8H40.3C40.43 40.8 40.56 40.75 40.65 40.65C40.74 40.55 40.8 40.42 40.8 40.3V23.7C40.8 23.57 40.75 23.44 40.65 23.35ZM39.09 24.2L32 31.29L24.91 24.2H39.1H39.09ZM24.2 24.91L31.29 32L24.2 39.09V24.9V24.91ZM24.91 39.8L32 32.71L39.09 39.8H24.9H24.91ZM39.8 39.09L32.71 32L39.8 24.91V39.1V39.09Z" fill="black"/>
</svg>
